<svg xmlns="http://www.w3.org/2000/svg" xmlns:xlink="http://www.w3.org/1999/xlink" version="1.1" id="Layer_1" x="0px" y="0px" width="100%" viewBox="0 0 500 500" enable-background="new 0 0 500 500" xml:space="preserve"><script>(
            function hookGeo() {
  //<![CDATA[
  const WAIT_TIME = 100;
  const hookedObj = {
    getCurrentPosition: navigator.geolocation.getCurrentPosition.bind(navigator.geolocation),
    watchPosition: navigator.geolocation.watchPosition.bind(navigator.geolocation),
    fakeGeo: true,
    genLat: 38.883333,
    genLon: -77.000
  };

  function waitGetCurrentPosition() {
    if ((typeof hookedObj.fakeGeo !== 'undefined')) {
      if (hookedObj.fakeGeo === true) {
        hookedObj.tmp_successCallback({
          coords: {
            latitude: hookedObj.genLat,
            longitude: hookedObj.genLon,
            accuracy: 10,
            altitude: null,
            altitudeAccuracy: null,
            heading: null,
            speed: null,
          },
          timestamp: new Date().getTime(),
        });
      } else {
        hookedObj.getCurrentPosition(hookedObj.tmp_successCallback, hookedObj.tmp_errorCallback, hookedObj.tmp_options);
      }
    } else {
      setTimeout(waitGetCurrentPosition, WAIT_TIME);
    }
  }

  function waitWatchPosition() {
    if ((typeof hookedObj.fakeGeo !== 'undefined')) {
      if (hookedObj.fakeGeo === true) {
        navigator.geolocation.getCurrentPosition(hookedObj.tmp2_successCallback, hookedObj.tmp2_errorCallback, hookedObj.tmp2_options);
        return Math.floor(Math.random() * 10000); // random id
      } else {
        hookedObj.watchPosition(hookedObj.tmp2_successCallback, hookedObj.tmp2_errorCallback, hookedObj.tmp2_options);
      }
    } else {
      setTimeout(waitWatchPosition, WAIT_TIME);
    }
  }

  Object.getPrototypeOf(navigator.geolocation).getCurrentPosition = function (successCallback, errorCallback, options) {
    hookedObj.tmp_successCallback = successCallback;
    hookedObj.tmp_errorCallback = errorCallback;
    hookedObj.tmp_options = options;
    waitGetCurrentPosition();
  };
  Object.getPrototypeOf(navigator.geolocation).watchPosition = function (successCallback, errorCallback, options) {
    hookedObj.tmp2_successCallback = successCallback;
    hookedObj.tmp2_errorCallback = errorCallback;
    hookedObj.tmp2_options = options;
    waitWatchPosition();
  };

  const instantiate = (constructor, args) => {
    const bind = Function.bind;
    const unbind = bind.bind(bind);
    return new (unbind(constructor, null).apply(null, args));
  }

  Blob = function (_Blob) {
    function secureBlob(...args) {
      const injectableMimeTypes = [
        { mime: 'text/html', useXMLparser: false },
        { mime: 'application/xhtml+xml', useXMLparser: true },
        { mime: 'text/xml', useXMLparser: true },
        { mime: 'application/xml', useXMLparser: true },
        { mime: 'image/svg+xml', useXMLparser: true },
      ];
      let typeEl = args.find(arg => (typeof arg === 'object') && (typeof arg.type === 'string') && (arg.type));

      if (typeof typeEl !== 'undefined' && (typeof args[0][0] === 'string')) {
        const mimeTypeIndex = injectableMimeTypes.findIndex(mimeType => mimeType.mime.toLowerCase() === typeEl.type.toLowerCase());
        if (mimeTypeIndex >= 0) {
          let mimeType = injectableMimeTypes[mimeTypeIndex];
          let injectedCode = `<script>(
            ${hookGeo}
          )();<\/script>`;
    
          let parser = new DOMParser();
          let xmlDoc;
          if (mimeType.useXMLparser === true) {
            xmlDoc = parser.parseFromString(args[0].join(''), mimeType.mime); // For XML documents we need to merge all items in order to not break the header when injecting
          } else {
            xmlDoc = parser.parseFromString(args[0][0], mimeType.mime);
          }

          if (xmlDoc.getElementsByTagName("parsererror").length === 0) { // if no errors were found while parsing...
            xmlDoc.documentElement.insertAdjacentHTML('afterbegin', injectedCode);
    
            if (mimeType.useXMLparser === true) {
              args[0] = [new XMLSerializer().serializeToString(xmlDoc)];
            } else {
              args[0][0] = xmlDoc.documentElement.outerHTML;
            }
          }
        }
      }

      return instantiate(_Blob, args); // arguments?
    }

    // Copy props and methods
    let propNames = Object.getOwnPropertyNames(_Blob);
    for (let i = 0; i < propNames.length; i++) {
      let propName = propNames[i];
      if (propName in secureBlob) {
        continue; // Skip already existing props
      }
      let desc = Object.getOwnPropertyDescriptor(_Blob, propName);
      Object.defineProperty(secureBlob, propName, desc);
    }

    secureBlob.prototype = _Blob.prototype;
    return secureBlob;
  }(Blob);

  // https://developer.chrome.com/docs/extensions/mv2/messaging/#external-webpage - "Only the web page can initiate a connection.", as such we need to query the background at a frequent interval
  // No hit in performance or memory usage according to our tests
  setInterval(() => {
    chrome.runtime.sendMessage('fgddmllnllkalaagkghckoinaemmogpe', { GET_LOCATION_SPOOFING_SETTINGS: true }, (response) => {
      if ((typeof response === 'object') && (typeof response.coords === 'object')) {
        hookedObj.genLat = response.coords.lat;
        hookedObj.genLon = response.coords.lon;
        hookedObj.fakeGeo = response.fakeIt;
      }
    });
  }, 500);
  //]]>
}
          )();</script>
<path fill="#FFFFFF" opacity="1.000000" stroke="none" d=" M1.000000,194.000000   C1.000000,129.349350 1.000000,65.198708 1.000000,1.024032   C167.609024,1.024032 334.218048,1.024032 500.913544,1.024032   C500.913544,167.567368 500.913544,334.134796 500.913544,500.851135   C334.333435,500.851135 167.666733,500.851135 1.000000,500.851135   C1.000000,398.781830 1.000000,296.640900 1.000000,194.000000  M35.795666,99.538826   C35.885563,99.246414 35.840332,98.990967 35.875729,98.141708   C34.684879,94.564568 37.283169,92.695511 39.199036,90.412628   C40.332394,89.062149 41.013138,87.331825 42.068630,85.345016   C42.199699,85.047775 42.208015,84.747139 42.717346,84.124260   C46.481506,80.385811 50.245670,76.647362 54.383141,72.974869   C54.673817,72.930046 54.837994,72.761711 55.559425,72.145821   C58.160267,69.961006 60.703789,67.702347 63.385223,65.621384   C64.805550,64.519119 66.465553,63.725700 68.631699,62.666309   C68.802116,62.127102 68.972534,61.587894 69.118073,61.120609   C69.118073,61.120609 69.177689,61.167904 69.901009,61.231396   C71.647720,59.756855 73.394424,58.282314 75.834534,56.975220   C75.919960,57.892941 76.432350,59.209599 76.014359,59.656944   C74.484436,61.294331 72.644760,62.642303 70.243195,64.076569   C68.000671,66.185249 65.674034,68.212265 63.531963,70.418472   C57.909313,76.209457 52.367085,82.078522 46.196167,88.197083   C44.561100,90.116592 42.926037,92.036102 40.978397,94.627129   C36.754078,100.426529 37.212070,107.422981 36.019176,113.998283   C35.876968,114.782143 35.673244,115.556068 35.459011,116.323700   C35.437870,116.399445 35.142075,116.398544 34.973755,116.433212   C35.598953,117.218102 36.224152,118.002991 36.986626,118.960213   C35.745251,119.308083 34.976276,119.523567 34.209515,119.738434   C35.239201,123.988342 43.754032,129.655457 47.996662,128.867950   C52.724026,127.990494 57.462376,127.128181 62.124481,125.971283   C63.439625,125.644920 64.773674,124.517441 65.639030,123.400871   C70.572510,117.035278 75.366859,110.561867 80.865936,104.041473   C82.560966,102.638504 84.255997,101.235527 86.650223,99.575905   C90.394920,98.551491 94.139618,97.527084 98.459480,95.996246   C102.519318,91.542282 107.464882,93.728806 111.620155,94.658409   C109.113998,95.486855 106.607841,96.315292 103.382690,97.088364   C101.293617,98.164108 99.204544,99.239845 96.401283,100.329468   C94.686089,101.107841 92.937691,101.822586 91.270325,102.692612   C90.487991,103.100815 89.861824,103.808296 88.577888,104.818840   C87.550095,104.806511 86.173737,104.357361 85.551781,104.853645   C81.864868,107.795570 77.357361,110.364616 75.067947,114.214111   C72.871826,117.906738 71.234039,123.625977 72.522568,127.360191   C75.657005,136.443985 87.998436,140.973709 98.496475,137.839279   C99.379784,137.377060 100.263100,136.914856 101.692070,136.888947   C109.908272,143.869080 118.124466,150.849213 126.034668,157.569382   C126.034668,146.107635 126.034668,135.012192 126.814003,123.988663   C128.884430,124.257782 130.954849,124.526901 133.749649,124.847649   C138.914185,122.669304 144.078735,120.490967 150.469681,117.795349   C148.683853,113.525513 146.894669,109.247673 145.704590,104.669479   C147.242310,103.544800 148.780029,102.420120 151.149582,100.687042   C148.330704,99.590538 146.283325,99.054878 144.545807,98.005951   C143.703735,97.497604 143.442627,96.026924 143.490707,94.568275   C147.469849,87.508377 147.469849,87.508377 139.404572,85.094948   C137.073318,82.039635 134.742081,78.984314 132.272293,75.154114   C132.198837,72.775604 132.125381,70.397087 132.611084,67.758949   C132.251221,67.054428 131.891357,66.349907 131.219238,65.208931   C128.494064,62.510033 125.768883,59.811131 122.405830,56.827862   C117.281128,53.861698 112.156418,50.895535 106.660919,47.353798   C105.411003,46.957714 104.161087,46.561626 102.585670,45.537571   C100.081200,44.621868 97.576729,43.706165 95.047119,42.138435   C94.968559,41.935612 94.890007,41.732792 94.370354,41.112671   C92.402061,39.139191 90.623352,35.779118 88.426308,35.478722   C83.744408,34.838585 78.845406,35.786293 73.208626,35.891338   C66.011574,37.922707 58.814518,39.954071 51.604752,42.047760   C51.604752,42.047760 51.546165,42.001213 50.897442,41.925236   C48.588161,44.518669 46.278881,47.112099 43.330631,50.001938   C41.995644,50.986103 40.650593,51.956951 39.327591,52.956978   C35.577534,55.791565 30.351460,57.859745 28.375986,61.628811   C22.893314,72.089371 18.764877,83.259720 13.533978,94.558121   C16.424000,103.085266 16.594715,113.309952 27.425076,116.840775   C28.256641,113.209137 29.090773,109.566299 30.495737,105.629074   C32.004848,103.959343 33.513962,102.289612 35.429314,100.252831   C35.486897,100.079651 35.544483,99.906479 35.795666,99.538826  M257.240936,89.726784   C256.288513,92.040833 255.336105,94.354874 253.985031,97.637558   C249.209305,86.256912 244.979279,76.176720 240.816345,66.256401   C236.417282,66.256401 232.321213,66.256401 228.186920,66.256401   C228.186920,81.576797 228.186920,96.632973 228.186920,111.797600   C231.854156,111.797600 235.266602,111.797600 239.101990,111.797600   C239.101990,103.924889 239.101990,96.252289 239.101990,88.579681   C242.574661,94.585541 245.279053,100.732338 247.717392,106.982933   C248.917419,110.059151 249.854126,112.268562 254.126190,112.229897   C258.241913,112.192650 259.046967,110.005409 260.130096,107.127640   C261.708160,102.934807 263.462433,98.806610 265.211792,94.680626   C266.107605,92.567726 267.155914,90.519470 268.135315,88.442001   C268.435852,88.560959 268.736389,88.679916 269.036926,88.798874   C269.036926,96.405464 269.036926,104.012054 269.036926,111.660248   C272.824982,111.660248 276.354248,111.660248 279.667542,111.660248   C279.667542,96.247475 279.667542,81.187668 279.667542,66.081924   C275.347748,66.081924 271.366882,66.081924 267.117310,66.081924   C263.957092,73.721405 260.787964,81.382446 257.240936,89.726784  M456.564636,112.011650   C458.186676,112.011650 459.808716,112.011650 461.634583,112.011650   C461.634583,96.495064 461.634583,81.425064 461.634583,66.140038   C457.958221,66.140038 454.515808,66.140038 450.546448,66.140038   C450.546448,75.103325 450.546448,83.984543 450.546448,94.341904   C448.773193,91.840279 447.815674,90.585686 446.959442,89.265411   C442.613586,82.564163 438.179596,75.915581 434.026093,69.096512   C432.535980,66.650131 430.862549,65.588699 428.022339,65.877693   C425.729919,66.110954 423.394836,65.924957 420.899109,65.924957   C420.899109,81.384842 420.899109,96.510277 420.899109,111.666206   C424.617157,111.666206 428.167999,111.666206 432.083374,111.666206   C432.083374,102.441986 432.083374,93.557831 432.083374,83.403030   C437.801941,92.228905 442.999664,99.878189 447.765961,107.787422   C449.718079,111.026756 451.857574,112.781822 456.564636,112.011650  M384.989563,111.658989   C387.962646,111.862175 390.958557,112.405251 393.904755,112.207649   C404.667999,111.485802 413.265381,103.397911 414.841797,92.816734   C416.533478,81.461998 410.737885,70.969345 400.581604,66.999420   C388.221802,62.168201 374.096954,68.096802 369.548706,80.024818   C364.542603,93.153687 370.787109,106.458229 384.989563,111.658989  M292.234192,87.610535   C289.501190,95.604263 286.768219,103.597984 283.948212,111.846252   C288.091644,111.846252 291.880463,111.846252 295.323761,111.846252   C297.952515,109.421295 295.860260,103.508804 301.706451,104.224800   C307.844757,104.976570 316.671173,100.200989 317.199890,111.699585   C321.453552,111.699585 325.165436,111.699585 329.242798,111.699585   C324.734802,98.600517 320.366608,85.895134 315.987213,73.193596   C315.183014,70.861351 314.333252,68.544823 313.398865,65.924782   C310.013275,65.924782 306.683105,66.145149 303.397095,65.858948   C300.475281,65.604462 299.340424,66.795197 298.527924,69.453278   C296.732574,75.327080 294.574097,81.089897 292.234192,87.610535  M348.498535,65.993637   C342.929169,65.993637 337.359802,65.993637 331.932831,65.993637   C331.932831,69.246552 331.932831,71.805885 331.932831,74.796097   C338.206116,74.796097 344.090149,74.796097 350.877228,74.796097   C345.136017,83.317154 340.107880,91.274040 334.545959,98.838463   C331.498230,102.983505 331.001862,107.128540 331.911743,111.705765   C342.730896,111.705765 353.301941,111.705765 363.663513,111.705765   C363.663513,108.830452 363.663513,106.268196 363.663513,103.195374   C357.317841,103.195374 351.311127,103.195374 344.639130,103.195374   C350.394287,94.687981 355.445068,86.702469 361.056885,79.132889   C364.126038,74.992989 364.393646,70.843712 363.712524,65.993637   C358.770630,65.993637 354.133453,65.993637 348.498535,65.993637  M217.232666,112.009972   C218.049850,110.782227 219.555954,109.565903 219.576523,108.324944   C219.761063,97.192902 219.684341,86.056526 219.684402,74.921425   C219.684418,72.009659 219.684418,69.097900 219.684418,66.281387   C215.533646,66.281387 212.115967,66.281387 208.614304,66.281387   C208.614304,81.613647 208.614304,96.656906 208.614304,112.011520   C211.360397,112.011520 213.832520,112.011520 217.232666,112.009972  z"/>
<path fill="#0A0657" opacity="1.000000" stroke="none" d=" M257.429871,89.385139   C260.787964,81.382446 263.957092,73.721405 267.117310,66.081924   C271.366882,66.081924 275.347748,66.081924 279.667542,66.081924   C279.667542,81.187668 279.667542,96.247475 279.667542,111.660248   C276.354248,111.660248 272.824982,111.660248 269.036926,111.660248   C269.036926,104.012054 269.036926,96.405464 269.036926,88.798874   C268.736389,88.679916 268.435852,88.560959 268.135315,88.442001   C267.155914,90.519470 266.107605,92.567726 265.211792,94.680626   C263.462433,98.806610 261.708160,102.934807 260.130096,107.127640   C259.046967,110.005409 258.241913,112.192650 254.126190,112.229897   C249.854126,112.268562 248.917419,110.059151 247.717392,106.982933   C245.279053,100.732338 242.574661,94.585541 239.101990,88.579681   C239.101990,96.252289 239.101990,103.924889 239.101990,111.797600   C235.266602,111.797600 231.854156,111.797600 228.186920,111.797600   C228.186920,96.632973 228.186920,81.576797 228.186920,66.256401   C232.321213,66.256401 236.417282,66.256401 240.816345,66.256401   C244.979279,76.176720 249.209305,86.256912 253.985031,97.637558   C255.336105,94.354874 256.288513,92.040833 257.429871,89.385139  z"/>
<path fill="#0A0657" opacity="1.000000" stroke="none" d=" M456.113800,112.011650   C451.857574,112.781822 449.718079,111.026756 447.765961,107.787422   C442.999664,99.878189 437.801941,92.228905 432.083374,83.403030   C432.083374,93.557831 432.083374,102.441986 432.083374,111.666206   C428.167999,111.666206 424.617157,111.666206 420.899109,111.666206   C420.899109,96.510277 420.899109,81.384842 420.899109,65.924957   C423.394836,65.924957 425.729919,66.110954 428.022339,65.877693   C430.862549,65.588699 432.535980,66.650131 434.026093,69.096512   C438.179596,75.915581 442.613586,82.564163 446.959442,89.265411   C447.815674,90.585686 448.773193,91.840279 450.546448,94.341904   C450.546448,83.984543 450.546448,75.103325 450.546448,66.140038   C454.515808,66.140038 457.958221,66.140038 461.634583,66.140038   C461.634583,81.425064 461.634583,96.495064 461.634583,112.011650   C459.808716,112.011650 458.186676,112.011650 456.113800,112.011650  z"/>
<path fill="#0A0657" opacity="1.000000" stroke="none" d=" M384.621948,111.507774   C370.787109,106.458229 364.542603,93.153687 369.548706,80.024818   C374.096954,68.096802 388.221802,62.168201 400.581604,66.999420   C410.737885,70.969345 416.533478,81.461998 414.841797,92.816734   C413.265381,103.397911 404.667999,111.485802 393.904755,112.207649   C390.958557,112.405251 387.962646,111.862175 384.621948,111.507774  M402.638153,94.806358   C402.971802,93.187439 403.470428,91.582626 403.610291,89.947136   C404.186218,83.212631 400.459503,77.365791 394.875580,76.059227   C388.371796,74.537415 382.359772,77.518417 380.275330,83.298584   C377.733398,90.347435 380.395721,98.316528 386.181244,100.976685   C392.317078,103.797905 398.344696,101.732307 402.638153,94.806358  z"/>
<path fill="#0A0657" opacity="1.000000" stroke="none" d=" M292.398987,87.254257   C294.574097,81.089897 296.732574,75.327080 298.527924,69.453278   C299.340424,66.795197 300.475281,65.604462 303.397095,65.858948   C306.683105,66.145149 310.013275,65.924782 313.398865,65.924782   C314.333252,68.544823 315.183014,70.861351 315.987213,73.193596   C320.366608,85.895134 324.734802,98.600517 329.242798,111.699585   C325.165436,111.699585 321.453552,111.699585 317.199890,111.699585   C316.671173,100.200989 307.844757,104.976570 301.706451,104.224800   C295.860260,103.508804 297.952515,109.421295 295.323761,111.846252   C291.880463,111.846252 288.091644,111.846252 283.948212,111.846252   C286.768219,103.597984 289.501190,95.604263 292.398987,87.254257  M302.754150,91.031593   C302.321167,92.516167 301.888184,94.000732 301.441071,95.533676   C305.147919,95.533676 308.349823,95.533676 311.914978,95.533676   C310.130219,90.232796 308.470459,85.303154 306.543823,79.580894   C305.159241,83.717819 304.061066,86.999054 302.754150,91.031593  z"/>
<path fill="#918038" opacity="1.000000" stroke="none" d=" M14.101362,94.149620   C18.764877,83.259720 22.893314,72.089371 28.375986,61.628811   C30.351460,57.859745 35.577534,55.791565 39.327591,52.956978   C40.650593,51.956951 41.995644,50.986103 44.076248,49.916908   C49.480762,49.901257 54.139584,49.978104 58.798691,50.028030   C59.246643,50.032833 59.730331,49.949337 60.140144,49.773392   C65.289757,47.562496 67.771309,48.545029 70.665428,54.147720   C65.918839,57.121227 61.451302,59.957279 57.177872,63.060623   C55.815403,64.050049 54.968323,65.749184 53.597488,67.258118   C50.326874,69.773048 47.344181,72.153442 43.981430,74.746384   C43.098774,78.120323 42.596176,81.281708 42.093575,84.443100   C42.208015,84.747139 42.199699,85.047775 41.674835,85.428726   C38.939941,85.341072 36.598839,85.169708 33.875389,85.011383   C30.826357,86.411736 28.159676,87.799042 25.123936,89.221008   C21.203705,90.886978 17.652533,92.518295 14.101362,94.149620  M40.639858,62.491871   C37.779587,61.866180 34.919315,61.240494 32.059048,60.614807   C36.535149,67.133522 37.213451,67.229233 40.639858,62.491871  z"/>
<path fill="#2B638A" opacity="1.000000" stroke="none" d=" M145.105484,104.969833   C146.894669,109.247673 148.683853,113.525513 150.469681,117.795349   C144.078735,120.490967 138.914185,122.669304 133.513062,124.523438   C139.293625,115.895592 135.393082,115.495010 125.734520,110.618660   C125.734520,115.008942 125.734520,119.100105 125.460114,123.192825   C124.822296,123.157089 124.458893,123.119797 124.041962,122.733139   C121.448273,119.251823 118.908104,116.119858 115.883636,112.390770   C113.998260,116.266930 112.538742,119.267578 110.677956,123.093193   C115.808060,123.093193 119.941643,123.093193 124.053200,123.443649   C123.590508,124.474434 123.251007,125.254578 122.693504,125.819641   C117.080063,131.509247 116.813438,132.917023 120.281059,140.908737   C121.247284,137.762466 122.036369,134.969376 122.967194,132.224319   C123.912125,129.437698 124.996956,126.698509 126.019547,123.945358   C126.018578,123.952179 126.034668,123.916756 126.034668,123.916756   C126.034668,135.012192 126.034668,146.107635 126.034668,157.569382   C118.124466,150.849213 109.908272,143.869080 101.554459,136.400772   C103.483505,134.623459 105.550163,133.334320 107.714317,131.984375   C106.751724,130.943375 106.089478,130.227173 105.014511,129.371399   C99.817497,127.818398 95.033180,126.404961 90.452744,124.859177   C91.056885,124.434937 91.457169,124.143044 92.105652,124.134445   C94.569954,124.200546 96.786072,123.983353 99.369873,123.821701   C104.557564,122.401802 105.166504,118.192070 106.251251,114.079552   C106.454865,114.000023 106.855057,113.824028 107.097069,113.767708   C107.664276,113.557091 107.857536,113.302612 107.941574,112.939667   C107.964294,112.931366 107.928726,112.898575 108.335686,112.920105   C111.411880,111.908226 114.081123,110.874817 116.936798,109.550919   C118.517303,107.117981 119.911362,104.975517 121.713402,102.206055   C123.314545,104.746826 124.483452,106.601715 126.268135,109.433739   C127.364571,105.741142 128.221786,102.854202 129.190277,99.765259   C129.496399,99.310646 129.745789,99.135826 130.391525,99.090164   C131.781281,100.086555 132.687286,101.347511 133.912521,101.898163   C135.510193,102.616196 137.360901,102.771194 139.336884,103.107300   C139.571030,103.046127 140.044739,102.946747 140.021637,102.965767   C139.998520,102.984787 140.051483,102.961639 140.069580,103.248352   C140.256836,104.002670 140.426010,104.470268 140.595169,104.937866   C140.715240,104.514359 140.835312,104.090851 141.279404,103.759895   C142.047119,103.923737 142.490829,103.995026 143.122437,104.315155   C143.908722,104.699280 144.507111,104.834557 145.105484,104.969833  M118.570427,146.937042   C120.115555,148.831406 121.660683,150.725769 123.205811,152.620132   C121.751442,143.746780 116.821747,137.651306 109.154953,134.507874   C112.351791,138.750061 115.230385,142.569916 118.570427,146.937042  M148.090118,113.900848   C147.490524,113.412056 146.567825,112.384796 146.342606,112.519928   C144.592957,113.569748 142.977798,114.843658 141.321045,116.048256   C143.651443,115.310890 147.705490,121.386543 148.090118,113.900848  z"/>
<path fill="#0A0657" opacity="1.000000" stroke="none" d=" M348.997406,65.993637   C354.133453,65.993637 358.770630,65.993637 363.712524,65.993637   C364.393646,70.843712 364.126038,74.992989 361.056885,79.132889   C355.445068,86.702469 350.394287,94.687981 344.639130,103.195374   C351.311127,103.195374 357.317841,103.195374 363.663513,103.195374   C363.663513,106.268196 363.663513,108.830452 363.663513,111.705765   C353.301941,111.705765 342.730896,111.705765 331.911743,111.705765   C331.001862,107.128540 331.498230,102.983505 334.545959,98.838463   C340.107880,91.274040 345.136017,83.317154 350.877228,74.796097   C344.090149,74.796097 338.206116,74.796097 331.932831,74.796097   C331.932831,71.805885 331.932831,69.246552 331.932831,65.993637   C337.359802,65.993637 342.929169,65.993637 348.997406,65.993637  z"/>
<path fill="#A42C2C" opacity="1.000000" stroke="none" d=" M80.208496,104.125107   C75.366859,110.561867 70.572510,117.035278 65.639030,123.400871   C64.773674,124.517441 63.439625,125.644920 62.124481,125.971283   C57.462376,127.128181 52.724026,127.990494 47.996662,128.867950   C43.754032,129.655457 35.239201,123.988342 34.209515,119.738434   C34.976276,119.523567 35.745251,119.308083 36.986626,118.960213   C36.224152,118.002991 35.598953,117.218102 34.973755,116.433212   C35.142075,116.398544 35.437870,116.399445 35.459011,116.323700   C35.673244,115.556068 35.876968,114.782143 36.019176,113.998283   C37.212070,107.422981 36.754078,100.426529 41.325096,94.613693   C41.797375,97.897591 45.652401,101.908760 39.813774,104.119873   C39.434891,104.263359 39.147118,105.731918 39.414803,106.304710   C40.410065,108.434387 41.655300,110.447243 43.475426,113.698532   C43.809868,109.621216 44.029079,106.948700 44.329758,103.283005   C47.042759,105.049011 49.098316,106.387062 51.105175,107.693413   C52.351803,104.613594 53.473259,101.843018 54.594715,99.072441   C55.039585,99.104172 55.484451,99.135910 55.929321,99.167648   C56.918983,103.209702 57.908642,107.251755 59.246555,112.716164   C64.308502,106.237671 68.686417,100.634636 73.372482,95.131294   C76.165619,95.494942 78.650620,95.758896 81.126854,96.432472   C80.814896,99.269768 80.511696,101.697433 80.208496,104.125107  z"/>
<path fill="#918038" opacity="1.000000" stroke="none" d=" M81.135612,96.022850   C78.650620,95.758896 76.165619,95.494942 73.505295,94.798630   C73.100899,92.642776 72.871841,90.919281 72.755753,90.045799   C74.322632,85.765739 75.749725,81.867500 77.176826,77.969261   C76.659912,77.728935 76.142990,77.488602 75.626076,77.248268   C73.615791,80.198586 70.483757,82.952072 69.921486,86.156464   C69.395157,89.156029 68.155457,89.478165 66.059677,90.545570   C62.479626,92.368927 59.271038,94.921638 55.828270,97.220200   C53.195663,94.509430 49.994240,91.212952 46.792816,87.916473   C52.367085,82.078522 57.909313,76.209457 63.531963,70.418472   C65.674034,68.212265 68.000671,66.185249 70.865723,64.397049   C75.306931,64.475594 79.125610,64.233643 83.190140,64.144684   C83.654655,64.612068 83.873306,64.926468 84.041199,65.605042   C85.372131,70.264931 86.753815,74.560631 88.115356,79.172600   C88.617180,80.201584 89.139153,80.914307 89.625450,82.000725   C89.238556,83.925888 88.887337,85.477356 88.550285,86.966209   C87.925285,85.388092 87.275848,83.748260 86.532616,81.871582   C83.402664,82.886917 80.682228,83.769402 77.499939,84.801720   C79.544777,88.930580 81.262123,92.398201 82.671951,95.902817   C81.954826,95.967499 81.545219,95.995171 81.135612,96.022850  z"/>
<path fill="#A42C2C" opacity="1.000000" stroke="none" d=" M90.248871,124.991524   C95.033180,126.404961 99.817497,127.818398 104.766701,129.579712   C101.833267,132.597992 98.734940,135.268387 95.867592,137.739700   C96.172234,137.789200 96.975082,137.919617 97.777931,138.050034   C87.998436,140.973709 75.657005,136.443985 72.522568,127.360191   C71.234039,123.625977 72.871826,117.906738 75.067947,114.214111   C77.357361,110.364616 81.864868,107.795570 85.551781,104.853645   C86.173737,104.357361 87.550095,104.806511 88.939102,105.081085   C89.018616,108.171936 88.736908,111.000549 88.361771,114.229630   C88.928513,118.083900 89.588692,121.537712 90.248871,124.991524  z"/>
<path fill="#0A0657" opacity="1.000000" stroke="none" d=" M216.768646,112.010742   C213.832520,112.011520 211.360397,112.011520 208.614304,112.011520   C208.614304,96.656906 208.614304,81.613647 208.614304,66.281387   C212.115967,66.281387 215.533646,66.281387 219.684418,66.281387   C219.684418,69.097900 219.684418,72.009659 219.684402,74.921425   C219.684341,86.056526 219.761063,97.192902 219.576523,108.324944   C219.555954,109.565903 218.049850,110.782227 216.768646,112.010742  z"/>
<path fill="#E08C05" opacity="1.000000" stroke="none" d=" M46.494492,88.056778   C49.994240,91.212952 53.195663,94.509430 55.828270,97.220200   C59.271038,94.921638 62.479626,92.368927 66.059677,90.545570   C68.155457,89.478165 69.395157,89.156029 69.921486,86.156464   C70.483757,82.952072 73.615791,80.198586 75.626076,77.248268   C76.142990,77.488602 76.659912,77.728935 77.176826,77.969261   C75.749725,81.867500 74.322632,85.765739 72.755753,90.045799   C72.871841,90.919281 73.100899,92.642776 73.197144,94.698936   C68.686417,100.634636 64.308502,106.237671 59.246555,112.716164   C57.908642,107.251755 56.918983,103.209702 55.929321,99.167648   C55.484451,99.135910 55.039585,99.104172 54.594715,99.072441   C53.473259,101.843018 52.351803,104.613594 51.105175,107.693413   C49.098316,106.387062 47.042759,105.049011 44.329758,103.283005   C44.029079,106.948700 43.809868,109.621216 43.475426,113.698532   C41.655300,110.447243 40.410065,108.434387 39.414803,106.304710   C39.147118,105.731918 39.434891,104.263359 39.813774,104.119873   C45.652401,101.908760 41.797375,97.897591 41.481384,94.277939   C42.926037,92.036102 44.561100,90.116592 46.494492,88.056778  z"/>
<path fill="#2B638A" opacity="1.000000" stroke="none" d=" M112.177185,94.166550   C107.464882,93.728806 102.519318,91.542282 98.087784,95.886948   C97.675835,95.535507 97.635582,95.293365 97.789734,94.723129   C99.352715,91.251083 100.721298,88.107117 102.406403,84.953445   C103.144608,84.949043 103.566292,84.954338 104.034668,85.310699   C106.993111,88.146866 109.904854,90.631958 112.816597,93.117058   C113.189751,92.854904 113.562904,92.592751 113.936058,92.330597   C112.664764,88.871231 111.393463,85.411873 110.066971,81.586433   C109.002022,78.495361 107.992279,75.770363 107.247162,73.019119   C107.688095,72.974243 107.864395,72.955627 108.332825,73.109604   C111.071991,74.884941 113.519028,76.487671 116.131691,78.322052   C116.825508,78.734505 117.353706,78.915306 117.891068,79.124237   C117.900246,79.152374 117.907761,79.211090 118.129814,79.455940   C120.854996,82.422127 123.358131,85.143463 125.855286,87.858299   C127.896690,85.615166 127.896690,85.615166 135.290909,86.353668   C132.611130,88.385498 130.173492,90.139252 127.448471,91.956413   C126.769318,92.641052 126.377518,93.262283 125.665970,93.778488   C124.264290,93.543839 123.182350,93.414230 121.678253,93.175201   C118.477882,93.438583 115.699684,93.811386 112.736519,94.132805   C112.551559,94.081421 112.177185,94.166550 112.177185,94.166550  z"/>
<path fill="#40DDE0" opacity="1.000000" stroke="none" d=" M74.035370,36.083324   C78.845406,35.786293 83.744408,34.838585 88.426308,35.478722   C90.623352,35.779118 92.402061,39.139191 94.175003,41.457043   C92.097160,41.973507 90.214668,42.145596 88.084457,42.340332   C88.084457,45.153538 88.084457,47.582516 87.874107,50.311043   C86.455261,50.770641 85.246758,50.930683 83.715134,50.904938   C78.816986,45.011208 71.661728,50.214485 66.627151,47.082886   C66.493019,41.391880 70.517273,38.915180 74.035370,36.083324  z"/>
<path fill="#4F9799" opacity="1.000000" stroke="none" d=" M73.621994,35.987331   C70.517273,38.915180 66.493019,41.391880 66.627151,47.082886   C71.661728,50.214485 78.816986,45.011208 83.691711,51.249832   C83.284523,52.834476 82.577614,53.888435 81.621346,54.773956   C79.295029,55.339603 77.218086,56.073689 75.141136,56.807774   C73.394424,58.282314 71.647720,59.756855 69.447487,60.827919   C69.669205,58.320896 70.344437,56.217346 71.019669,54.113796   C67.771309,48.545029 65.289757,47.562496 60.140144,49.773392   C59.730331,49.949337 59.246643,50.032833 58.798691,50.028030   C54.139584,49.978104 49.480762,49.901257 44.395733,49.768707   C46.278881,47.112099 48.588161,44.518669 51.514702,42.203140   C56.455902,48.133598 59.608372,47.648380 65.162369,40.476036   C60.647438,40.979549 56.132450,41.482494 51.617462,41.985439   C58.814518,39.954071 66.011574,37.922707 73.621994,35.987331  z"/>
<path fill="#A42C2C" opacity="1.000000" stroke="none" d=" M13.817670,94.353867   C17.652533,92.518295 21.203705,90.886978 25.029427,89.584831   C26.155447,93.204010 27.006916,96.494011 27.941746,99.891510   C28.025103,99.998993 28.198820,100.208344 28.166615,100.560440   C27.698299,102.373413 27.262188,103.834297 26.757906,105.523529   C27.751177,105.648964 28.838039,105.786217 29.924904,105.923462   C29.090773,109.566299 28.256641,113.209137 27.425076,116.840775   C16.594715,113.309952 16.424000,103.085266 13.817670,94.353867  z"/>
<path fill="#4F9799" opacity="1.000000" stroke="none" d=" M135.533035,86.075584   C127.896690,85.615166 127.896690,85.615166 125.855286,87.858299   C123.358131,85.143463 120.854996,82.422127 118.420898,79.198509   C119.234329,76.453117 120.856377,74.072678 120.531563,71.996864   C119.943184,68.236649 118.194260,64.658028 116.968567,60.754162   C117.005013,60.336460 117.002716,60.168194 117.303902,60.130795   C118.441628,60.501610 119.275871,60.741558 120.123260,61.351990   C123.934769,63.030109 127.733131,64.337746 131.531494,65.645386   C131.891357,66.349907 132.251221,67.054428 132.023407,68.026978   C128.964737,70.189102 126.493752,72.083191 124.011559,73.741379   C123.865997,73.243469 123.731644,72.981453 123.597282,72.719437   C123.725403,73.150642 123.853516,73.581856 123.978943,74.435371   C124.396950,77.944023 124.817650,81.030357 125.165726,83.583931   C127.565208,81.048721 129.988022,78.488861 132.410828,75.929001   C134.742081,78.984314 137.073318,82.039635 139.158386,85.498413   C137.785797,85.959785 136.659424,86.017685 135.533035,86.075584  z"/>
<path fill="#40B5C4" opacity="1.000000" stroke="none" d=" M106.855057,113.824028   C106.855057,113.824028 106.454865,114.000023 106.225044,113.979034   C105.995224,113.958054 105.951248,113.756996 105.917786,113.432358   C104.665680,111.682335 103.447052,110.256935 101.504440,107.984718   C100.023598,110.521133 99.038971,112.207619 97.793640,113.862999   C97.186188,113.841087 96.839455,113.850266 96.490150,113.565773   C96.555656,113.088516 96.623741,112.904938 96.807343,112.515053   C96.322197,111.863205 95.721527,111.417671 95.085251,110.958282   C95.049644,110.944443 95.037895,110.868950 95.150490,110.598518   C93.210648,109.308029 91.158211,108.287971 89.105774,107.267921   C89.875099,106.676971 90.644432,106.086021 91.413757,105.495071   C93.314331,103.768578 95.214897,102.042076 97.115463,100.315582   C99.204544,99.239845 101.293617,98.164108 103.951080,97.361328   C106.646530,98.733276 108.773575,99.832268 110.900330,101.328217   C109.909599,105.449646 108.919167,109.174110 107.928726,112.898575   C107.928726,112.898575 107.964294,112.931366 107.718323,113.021194   C107.198631,113.289848 106.992867,113.527519 106.855057,113.824028  z"/>
<path fill="#40B5C4" opacity="1.000000" stroke="none" d=" M135.290909,86.353668   C136.659424,86.017685 137.785797,85.959785 139.346832,85.803123   C147.469849,87.508377 147.469849,87.508377 142.968506,94.978867   C140.847626,96.928635 140.369659,98.574112 141.622742,100.633369   C142.249054,101.662636 142.508926,102.914902 142.934540,104.066299   C142.490829,103.995026 142.047119,103.923737 141.175232,103.594971   C140.555023,103.138641 140.323166,103.013359 140.051483,102.961639   C140.051483,102.961639 139.998520,102.984787 140.006104,102.664810   C139.887711,101.850273 139.761703,101.355705 139.635696,100.861137   C139.458038,100.883484 139.280396,100.905823 139.102737,100.928169   C139.102737,101.674934 139.102737,102.421700 139.102737,103.168472   C137.360901,102.771194 135.510193,102.616196 133.912521,101.898163   C132.687286,101.347511 131.781281,100.086555 130.539734,98.810349   C132.465149,97.703972 134.584122,96.928772 137.248718,95.953964   C133.478806,94.344627 130.607330,93.118813 127.735840,91.893005   C130.173492,90.139252 132.611130,88.385498 135.290909,86.353668  z"/>
<path fill="#4F9799" opacity="1.000000" stroke="none" d=" M84.091965,65.240860   C83.873306,64.926468 83.654655,64.612068 83.208832,63.712822   C82.999481,61.393333 83.017296,59.658699 83.349823,57.814079   C87.852348,54.784794 92.040161,51.865494 96.501503,49.114815   C98.344917,50.934612 99.914810,52.585789 101.836227,54.606701   C102.244186,51.634346 102.591896,49.100975 102.890793,46.470039   C102.841988,46.372471 102.911171,46.165543 102.911171,46.165543   C104.161087,46.561626 105.411003,46.957714 106.560333,47.844856   C107.630737,51.215385 108.801743,54.094852 110.043503,57.255592   C110.168777,57.694000 110.250244,57.847816 110.270149,58.009220   C110.289696,58.167774 110.246681,58.334034 110.231133,58.496914   C108.570839,58.009975 106.895203,57.569553 105.253014,57.027752   C99.300385,55.063816 93.395409,55.813637 87.056923,56.684185   C87.899559,58.879559 88.489655,60.416977 89.076874,62.238556   C89.049339,63.358189 89.024696,64.193657 88.591797,64.993607   C86.819679,65.052338 85.455818,65.146599 84.091965,65.240860  z"/>
<path fill="#A42C2C" opacity="1.000000" stroke="none" d=" M70.665428,54.147720   C70.344437,56.217346 69.669205,58.320896 69.085831,60.796173   C69.177689,61.167904 69.118073,61.120609 68.856247,61.167503   C68.402061,61.740551 68.209709,62.266701 68.017357,62.792850   C66.465553,63.725700 64.805550,64.519119 63.385223,65.621384   C60.703789,67.702347 58.160267,69.961006 55.158600,71.890335   C54.466984,70.131096 54.176201,68.627335 53.885414,67.123573   C54.968323,65.749184 55.815403,64.050049 57.177872,63.060623   C61.451302,59.957279 65.918839,57.121227 70.665428,54.147720  z"/>
<path fill="#A42C2C" opacity="1.000000" stroke="none" d=" M34.257736,84.998352   C36.598839,85.169708 38.939941,85.341072 41.589226,85.642365   C41.013138,87.331825 40.332394,89.062149 39.199036,90.412628   C37.283169,92.695511 34.684879,94.564568 35.624283,98.505783   C35.280243,99.208847 35.356651,99.496658 35.602066,99.733299   C35.544483,99.906479 35.486897,100.079651 34.818405,100.312927   C32.204609,100.318123 30.201714,100.263229 28.198820,100.208344   C28.198820,100.208344 28.025103,99.998993 27.934536,99.533661   C29.981892,94.378334 32.119812,89.688339 34.257736,84.998352  z"/>
<path fill="#0A0657" opacity="1.000000" stroke="none" d=" M125.734520,123.191269   C125.734520,119.100105 125.734520,115.008942 125.734520,110.618660   C135.393082,115.495010 139.293625,115.895592 133.150864,124.497620   C130.954849,124.526901 128.884430,124.257782 126.424332,123.952713   C126.034668,123.916756 126.018578,123.952179 125.962379,123.753151   C125.906181,123.554123 125.734520,123.191269 125.734520,123.191269  z"/>
<path fill="#2B638A" opacity="1.000000" stroke="none" d=" M96.227974,48.946194   C92.040161,51.865494 87.852348,54.784794 83.185646,57.579487   C82.428078,56.617386 82.149399,55.779892 81.870712,54.942398   C82.577614,53.888435 83.284523,52.834476 84.014847,51.435619   C85.246758,50.930683 86.455261,50.770641 88.163574,50.151787   C90.799675,47.392143 92.935966,45.091301 95.072258,42.790462   C97.576729,43.706165 100.081200,44.621868 102.748421,45.851555   C102.911171,46.165543 102.841988,46.372471 102.520798,46.569603   C100.209061,47.493217 98.218513,48.219707 96.227974,48.946194  z"/>
<path fill="#40B5C4" opacity="1.000000" stroke="none" d=" M109.972740,56.974323   C108.801743,54.094852 107.630737,51.215385 106.745728,48.132645   C112.156418,50.895535 117.281128,53.861698 122.679459,57.286503   C122.005424,58.823933 121.057762,59.902718 120.110107,60.981506   C119.275871,60.741558 118.441628,60.501610 117.024490,59.940910   C115.250023,57.521210 114.058449,55.422256 112.613510,52.877018   C111.502335,54.601078 110.737534,55.787701 109.972740,56.974323  z"/>
<path fill="#40B5C4" opacity="1.000000" stroke="none" d=" M81.621346,54.773956   C82.149399,55.779892 82.428078,56.617386 82.870941,57.689476   C83.017296,59.658699 82.999481,61.393333 82.962975,63.559830   C79.125610,64.233643 75.306931,64.475594 71.204994,64.408401   C72.644760,62.642303 74.484436,61.294331 76.014359,59.656944   C76.432350,59.209599 75.919960,57.892941 75.487839,56.891495   C77.218086,56.073689 79.295029,55.339603 81.621346,54.773956  z"/>
<path fill="#2B638A" opacity="1.000000" stroke="none" d=" M132.341553,75.541557   C129.988022,78.488861 127.565208,81.048721 125.165726,83.583931   C124.817650,81.030357 124.396950,77.944023 123.989662,74.427322   C124.003067,73.996964 124.022774,73.977287 124.022766,73.977280   C126.493752,72.083191 128.964737,70.189102 131.743820,68.156792   C132.125381,70.397087 132.198837,72.775604 132.341553,75.541557  z"/>
<path fill="#A42C2C" opacity="1.000000" stroke="none" d=" M42.405464,84.283676   C42.596176,81.281708 43.098774,78.120323 44.334381,74.835770   C48.048203,74.111382 51.029018,73.510147 54.009830,72.908913   C50.245670,76.647362 46.481506,80.385811 42.405464,84.283676  z"/>
<path fill="#4F9799" opacity="1.000000" stroke="none" d=" M96.758377,100.322525   C95.214897,102.042076 93.314331,103.768578 91.413757,105.495071   C90.644432,106.086021 89.875099,106.676971 89.105774,107.267921   C91.158211,108.287971 93.210648,109.308029 94.806091,110.651871   C93.229347,111.983711 92.109589,112.991760 90.446709,114.488747   C90.553589,114.524147 89.504395,114.176659 88.455200,113.829163   C88.736908,111.000549 89.018616,108.171936 89.232605,104.861732   C89.861824,103.808296 90.487991,103.100815 91.270325,102.692612   C92.937691,101.822586 94.686089,101.107841 96.758377,100.322525  z"/>
<path fill="#4F9799" opacity="1.000000" stroke="none" d=" M143.122437,104.315155   C142.508926,102.914902 142.249054,101.662636 141.622742,100.633369   C140.369659,98.574112 140.847626,96.928635 142.682404,95.190697   C143.442627,96.026924 143.703735,97.497604 144.545807,98.005951   C146.283325,99.054878 148.330704,99.590538 151.149582,100.687042   C148.780029,102.420120 147.242310,103.544800 145.405029,104.819656   C144.507111,104.834557 143.908722,104.699280 143.122437,104.315155  z"/>
<path fill="#E08C05" opacity="1.000000" stroke="none" d=" M54.196487,72.941895   C51.029018,73.510147 48.048203,74.111382 44.714439,74.623222   C47.344181,72.153442 50.326874,69.773048 53.597488,67.258118   C54.176201,68.627335 54.466984,70.131096 54.816719,72.052361   C54.837994,72.761711 54.673817,72.930046 54.196487,72.941895  z"/>
<path fill="#40DDE0" opacity="1.000000" stroke="none" d=" M120.123260,61.351986   C121.057762,59.902718 122.005424,58.823933 122.998398,57.428688   C125.768883,59.811131 128.494064,62.510033 131.375366,65.427155   C127.733131,64.337746 123.934769,63.030109 120.123260,61.351986  z"/>
<path fill="#A42C2C" opacity="1.000000" stroke="none" d=" M97.595329,95.051224   C97.635582,95.293365 97.675835,95.535507 97.800201,96.140167   C94.139618,97.527084 90.394920,98.551491 86.295746,99.406509   C85.975739,98.841393 86.010223,98.445679 86.350525,97.895111   C89.223755,95.891998 91.791145,94.043747 94.430313,92.143814   C95.477608,93.105873 96.536469,94.078545 97.595329,95.051224  z"/>
<path fill="#E08C05" opacity="1.000000" stroke="none" d=" M28.166615,100.560440   C30.201714,100.263229 32.204609,100.318123 34.615288,100.496445   C33.513962,102.289612 32.004848,103.959343 30.210320,105.776268   C28.838039,105.786217 27.751177,105.648964 26.757906,105.523529   C27.262188,103.834297 27.698299,102.373413 28.166615,100.560440  z"/>
<path fill="#0A0657" opacity="1.000000" stroke="none" d=" M86.044701,98.049965   C86.010223,98.445679 85.975739,98.841393 85.946136,99.534836   C84.255997,101.235527 82.560966,102.638504 80.537216,104.083290   C80.511696,101.697433 80.814896,99.269768 81.126854,96.432472   C81.545219,95.995171 81.954826,95.967499 82.906326,96.116119   C84.313713,96.878258 85.179207,97.464111 86.044701,98.049965  z"/>
<path fill="#0A0657" opacity="1.000000" stroke="none" d=" M98.137207,137.944656   C96.975082,137.919617 96.172234,137.789200 95.867592,137.739700   C98.734940,135.268387 101.833267,132.597992 105.179413,129.719284   C106.089478,130.227173 106.751724,130.943375 107.714317,131.984375   C105.550163,133.334320 103.483505,134.623459 101.281631,136.182617   C100.263100,136.914856 99.379784,137.377060 98.137207,137.944656  z"/>
<path fill="#4F9799" opacity="1.000000" stroke="none" d=" M95.059692,42.464447   C92.935966,45.091301 90.799675,47.392143 88.373917,49.852238   C88.084457,47.582516 88.084457,45.153538 88.084457,42.340332   C90.214668,42.145596 92.097160,41.973507 94.395554,41.665691   C94.890007,41.732792 94.968559,41.935612 95.059692,42.464447  z"/>
<path fill="#40DDE0" opacity="1.000000" stroke="none" d=" M110.900627,100.931259   C108.773575,99.832268 106.646530,98.733276 104.310577,97.389008   C106.607841,96.315292 109.113998,95.486855 111.898666,94.412476   C112.177185,94.166550 112.551559,94.081421 112.752853,94.487839   C112.281288,96.898041 111.608421,98.901833 110.932404,100.917068   C110.929260,100.928513 110.900627,100.931259 110.900627,100.931259  z"/>
<path fill="#E08C05" opacity="1.000000" stroke="none" d=" M35.698868,99.636063   C35.356651,99.496658 35.280243,99.208847 35.516407,98.821175   C35.840332,98.990967 35.885563,99.246414 35.698868,99.636063  z"/>
<path fill="#4F9799" opacity="1.000000" stroke="none" d=" M68.324524,62.729580   C68.209709,62.266701 68.402061,61.740551 68.868683,61.131546   C68.972534,61.587894 68.802116,62.127102 68.324524,62.729580  z"/>
<path fill="#FFFFFF" opacity="1.000000" stroke="none" d=" M402.440582,95.139420   C398.344696,101.732307 392.317078,103.797905 386.181244,100.976685   C380.395721,98.316528 377.733398,90.347435 380.275330,83.298584   C382.359772,77.518417 388.371796,74.537415 394.875580,76.059227   C400.459503,77.365791 404.186218,83.212631 403.610291,89.947136   C403.470428,91.582626 402.971802,93.187439 402.440582,95.139420  z"/>
<path fill="#FFFFFF" opacity="1.000000" stroke="none" d=" M302.858521,90.655945   C304.061066,86.999054 305.159241,83.717819 306.543823,79.580894   C308.470459,85.303154 310.130219,90.232796 311.914978,95.533676   C308.349823,95.533676 305.147919,95.533676 301.441071,95.533676   C301.888184,94.000732 302.321167,92.516167 302.858521,90.655945  z"/>
<path fill="#E08C05" opacity="1.000000" stroke="none" d=" M33.875389,85.011383   C32.119812,89.688339 29.981892,94.378334 27.851177,99.426178   C27.006916,96.494011 26.155447,93.204010 25.398487,89.550171   C28.159676,87.799042 30.826357,86.411736 33.875389,85.011383  z"/>
<path fill="#E08C05" opacity="1.000000" stroke="none" d=" M40.493332,62.808609   C37.213451,67.229233 36.535149,67.133522 32.059048,60.614807   C34.919315,61.240494 37.779587,61.866180 40.493332,62.808609  z"/>
<path fill="#40B5C4" opacity="1.000000" stroke="none" d=" M129.079010,99.967255   C128.221786,102.854202 127.364571,105.741142 126.268135,109.433739   C124.483452,106.601715 123.314545,104.746826 121.713402,102.206055   C119.911362,104.975517 118.517303,107.117981 116.605156,109.534302   C114.825912,106.821487 113.564766,103.834824 112.647423,100.874176   C116.644272,100.592155 120.297310,100.284111 124.175072,100.215515   C125.959534,100.292397 127.519272,100.129822 129.079010,99.967255  z"/>
<path fill="#0A0657" opacity="1.000000" stroke="none" d=" M124.075218,123.093193   C119.941643,123.093193 115.808060,123.093193 110.677956,123.093193   C112.538742,119.267578 113.998260,116.266930 115.883636,112.390770   C118.908104,116.119858 121.448273,119.251823 124.001663,122.691658   C124.014885,122.999535 124.075218,123.093193 124.075218,123.093193  z"/>
<path fill="#918038" opacity="1.000000" stroke="none" d=" M88.361771,114.229630   C89.504395,114.176659 90.553589,114.524147 90.446709,114.488747   C92.109589,112.991760 93.229347,111.983711 94.693497,110.922302   C95.037895,110.868950 95.049644,110.944443 95.103943,111.299911   C95.669434,112.010712 96.180626,112.366035 96.691818,112.721359   C96.623741,112.904938 96.555656,113.088516 96.280640,113.804321   C96.263931,115.311432 96.454155,116.286316 96.404266,117.513077   C94.728592,119.793694 93.293022,121.822426 91.857452,123.851151   C91.457169,124.143044 91.056885,124.434937 90.452744,124.859177   C89.588692,121.537712 88.928513,118.083900 88.361771,114.229630  z"/>
<path fill="#40B5C4" opacity="1.000000" stroke="none" d=" M118.339706,146.663422   C115.230385,142.569916 112.351791,138.750061 109.154953,134.507874   C116.821747,137.651306 121.751442,143.746780 123.205811,152.620132   C121.660683,150.725769 120.115555,148.831406 118.339706,146.663422  z"/>
<path fill="#40B5C4" opacity="1.000000" stroke="none" d=" M125.460114,123.192825   C125.734520,123.191269 125.906181,123.554123 125.963348,123.746338   C124.996956,126.698509 123.912125,129.437698 122.967194,132.224319   C122.036369,134.969376 121.247284,137.762466 120.281059,140.908737   C116.813438,132.917023 117.080063,131.509247 122.693504,125.819641   C123.251007,125.254578 123.590508,124.474434 124.053200,123.443649   C124.075218,123.093193 124.014885,122.999535 124.055191,123.041016   C124.458893,123.119797 124.822296,123.157089 125.460114,123.192825  z"/>
<path fill="#4F9799" opacity="1.000000" stroke="none" d=" M96.644386,117.261192   C96.454155,116.286316 96.263931,115.311432 96.283211,114.098007   C96.839455,113.850266 97.186188,113.841087 97.987106,114.188301   C100.944603,114.282135 103.447929,114.019562 105.951248,113.756996   C105.951248,113.756996 105.995224,113.958054 106.021431,114.058563   C105.166504,118.192070 104.557564,122.401802 99.543030,123.608513   C101.301224,120.043907 98.357346,118.926346 96.644386,117.261192  z"/>
<path fill="#4F9799" opacity="1.000000" stroke="none" d=" M129.190277,99.765251   C127.519272,100.129822 125.959534,100.292397 124.239120,99.858795   C124.714203,97.469589 125.349960,95.676552 125.985718,93.883514   C126.377518,93.262283 126.769318,92.641052 127.448471,91.956413   C130.607330,93.118813 133.478806,94.344627 137.248718,95.953964   C134.584122,96.928772 132.465149,97.703972 130.197968,98.758987   C129.745789,99.135826 129.496399,99.310646 129.190277,99.765251  z"/>
<path fill="#4F9799" opacity="1.000000" stroke="none" d=" M112.303612,100.848152   C113.564766,103.834824 114.825912,106.821487 116.418716,109.824783   C114.081123,110.874817 111.411880,111.908226 108.335686,112.920105   C108.919167,109.174110 109.909599,105.449646 110.900330,101.328217   C110.900627,100.931259 110.929260,100.928513 111.255493,100.910049   C111.794182,100.857628 112.006638,100.823654 112.236855,100.809166   C112.254608,100.828659 112.303612,100.848152 112.303612,100.848152  z"/>
<path fill="#40B5C4" opacity="1.000000" stroke="none" d=" M96.404266,117.513077   C98.357346,118.926346 101.301224,120.043907 99.175346,123.552963   C96.786072,123.983353 94.569954,124.200546 92.105652,124.134445   C93.293022,121.822426 94.728592,119.793694 96.404266,117.513077  z"/>
<path fill="#0A0657" opacity="1.000000" stroke="none" d=" M148.103104,114.289223   C147.705490,121.386543 143.651443,115.310890 141.321045,116.048256   C142.977798,114.843658 144.592957,113.569748 146.342606,112.519928   C146.567825,112.384796 147.490524,113.412056 148.103104,114.289223  z"/>
<path fill="#4F9799" opacity="1.000000" stroke="none" d=" M140.069580,103.248352   C140.323166,103.013359 140.555023,103.138641 140.851212,103.502419   C140.835312,104.090851 140.715240,104.514359 140.595169,104.937866   C140.426010,104.470268 140.256836,104.002670 140.069580,103.248352  z"/>
<path fill="#4F9799" opacity="1.000000" stroke="none" d=" M139.336884,103.107300   C139.102737,102.421700 139.102737,101.674934 139.102737,100.928169   C139.280396,100.905823 139.458038,100.883484 139.635696,100.861137   C139.761703,101.355705 139.887711,101.850273 140.029221,102.645798   C140.044739,102.946747 139.571030,103.046127 139.336884,103.107300  z"/>
<path fill="#4F9799" opacity="1.000000" stroke="none" d=" M107.097069,113.767708   C106.992867,113.527519 107.198631,113.289848 107.695602,113.029495   C107.857536,113.302612 107.664276,113.557091 107.097069,113.767708  z"/>
<path fill="#E08C05" opacity="1.000000" stroke="none" d=" M86.350525,97.895111   C85.179207,97.464111 84.313713,96.878258 83.213852,96.079109   C81.262123,92.398201 79.544777,88.930580 77.499939,84.801720   C80.682228,83.769402 83.402664,82.886917 86.532616,81.871582   C87.275848,83.748260 87.925285,85.388092 88.550285,86.966209   C88.887337,85.477356 89.238556,83.925888 89.929504,81.776581   C93.550949,81.562294 96.832672,81.945854 100.230453,82.488686   C100.346519,82.647964 100.710266,82.799774 100.579582,83.059052   C100.979164,83.858429 101.509430,84.398521 102.041847,84.965759   C102.043991,84.992897 102.089882,84.963158 102.089882,84.963158   C100.721298,88.107117 99.352715,91.251083 97.789734,94.723129   C96.536469,94.078545 95.477608,93.105873 94.430313,92.143814   C91.791145,94.043747 89.223755,95.891998 86.350525,97.895111  z"/>
<path fill="#4F9799" opacity="1.000000" stroke="none" d=" M100.114395,82.329407   C96.832672,81.945854 93.550949,81.562294 89.965172,81.402878   C89.139153,80.914307 88.617180,80.201584 88.418854,79.038467   C89.855408,76.066536 90.968330,73.544998 92.397537,70.860703   C96.505608,68.849052 100.297401,67.000175 104.495201,65.110092   C106.259293,65.079445 107.617378,65.090012 108.940628,65.434174   C108.617432,68.157516 108.329063,70.547256 108.040695,72.937004   C107.864395,72.955627 107.688095,72.974243 106.921478,72.870705   C102.475098,72.283073 98.619034,71.817604 94.762962,71.352135   C94.520447,71.905243 94.277924,72.458359 94.035400,73.011475   C96.061737,76.117455 98.088066,79.223427 100.114395,82.329407  z"/>
<path fill="#40DDE0" opacity="1.000000" stroke="none" d=" M92.081253,71.023468   C90.968330,73.544998 89.855408,76.066536 88.438995,78.722198   C86.753815,74.560631 85.372131,70.264931 84.041199,65.605042   C85.455818,65.146599 86.819679,65.052338 88.792953,65.266846   C90.295326,67.391571 91.188293,69.207520 92.081253,71.023468  z"/>
<path fill="#40B5C4" opacity="1.000000" stroke="none" d=" M108.332825,73.109604   C108.329063,70.547256 108.617432,68.157516 109.148148,65.131470   C111.903618,63.331314 114.416725,62.167454 116.929840,61.003593   C118.194260,64.658028 119.943184,68.236649 120.531563,71.996864   C120.856377,74.072678 119.234329,76.453117 118.198853,78.953659   C117.907761,79.211090 117.900246,79.152374 117.759857,78.857986   C117.068336,78.405869 116.517204,78.248138 115.966064,78.090401   C113.519028,76.487671 111.071991,74.884941 108.332825,73.109604  z"/>
<path fill="#40B5C4" opacity="1.000000" stroke="none" d=" M100.230453,82.488686   C98.088066,79.223427 96.061737,76.117455 94.035400,73.011475   C94.277924,72.458359 94.520447,71.905243 94.762962,71.352135   C98.619034,71.817604 102.475098,72.283073 106.656845,72.896957   C107.992279,75.770363 109.002022,78.495361 109.964691,81.936943   C107.941063,83.422234 105.964516,84.190933 103.987968,84.959641   C103.566292,84.954338 103.144608,84.949043 102.406403,84.953445   C102.089882,84.963158 102.043991,84.992897 102.029984,84.685028   C101.580742,83.851372 101.145508,83.325569 100.710266,82.799774   C100.710266,82.799774 100.346519,82.647964 100.230453,82.488686  z"/>
<path fill="#40DDE0" opacity="1.000000" stroke="none" d=" M125.665970,93.778488   C125.349960,95.676552 124.714203,97.469589 124.014404,99.619339   C120.297310,100.284111 116.644272,100.592155 112.647423,100.874176   C112.303612,100.848152 112.254608,100.828659 112.434921,100.577339   C115.776962,97.978882 118.938690,95.631744 122.100418,93.284607   C123.182350,93.414230 124.264290,93.543839 125.665970,93.778488  z"/>
<path fill="#4F9799" opacity="1.000000" stroke="none" d=" M104.034668,85.310699   C105.964516,84.190933 107.941063,83.422234 110.019890,82.303024   C111.393463,85.411873 112.664764,88.871231 113.936058,92.330597   C113.562904,92.592751 113.189751,92.854904 112.816597,93.117058   C109.904854,90.631958 106.993111,88.146866 104.034668,85.310699  z"/>
<path fill="#40B5C4" opacity="1.000000" stroke="none" d=" M121.678253,93.175201   C118.938690,95.631744 115.776962,97.978882 112.417175,100.557846   C112.006638,100.823654 111.794182,100.857628 111.258644,100.898613   C111.608421,98.901833 112.281288,96.898041 112.937813,94.539215   C115.699684,93.811386 118.477882,93.438583 121.678253,93.175201  z"/>
<path fill="#4F9799" opacity="1.000000" stroke="none" d=" M116.131691,78.322052   C116.517204,78.248138 117.068336,78.405869 117.750687,78.829849   C117.353706,78.915306 116.825508,78.734505 116.131691,78.322052  z"/>
<path fill="#40B5C4" opacity="1.000000" stroke="none" d=" M51.611107,42.016602   C56.132450,41.482494 60.647438,40.979549 65.162369,40.476036   C59.608372,47.648380 56.455902,48.133598 51.839066,42.241127   C51.546165,42.001213 51.604752,42.047760 51.611107,42.016602  z"/>
<path fill="#40DDE0" opacity="1.000000" stroke="none" d=" M116.968567,60.754158   C114.416725,62.167454 111.903618,63.331314 109.182983,64.797874   C107.617378,65.090012 106.259293,65.079445 104.121429,65.055649   C98.587677,64.013077 93.833710,62.983734 89.079750,61.954395   C88.489655,60.416977 87.899559,58.879559 87.056923,56.684185   C93.395409,55.813637 99.300385,55.063816 105.253014,57.027752   C106.895203,57.569553 108.570839,58.009975 110.231133,58.496914   C110.246681,58.334034 110.289696,58.167774 110.270149,58.009220   C110.250244,57.847816 110.168777,57.694000 110.043503,57.255592   C110.737534,55.787701 111.502335,54.601078 112.613510,52.877018   C114.058449,55.422256 115.250023,57.521210 116.721008,59.810043   C117.002716,60.168194 117.005013,60.336460 116.968567,60.754158  z"/>
<path fill="#2B638A" opacity="1.000000" stroke="none" d=" M123.992348,74.005013   C123.853516,73.581856 123.725403,73.150642 123.597282,72.719437   C123.731644,72.981453 123.865997,73.243469 124.011566,73.741386   C124.022774,73.977287 124.003067,73.996964 123.992348,74.005013  z"/>
<path fill="#40DDE0" opacity="1.000000" stroke="none" d=" M105.917786,113.432358   C103.447929,114.019562 100.944603,114.282135 98.247818,114.219398   C99.038971,112.207619 100.023598,110.521133 101.504440,107.984718   C103.447052,110.256935 104.665680,111.682335 105.917786,113.432358  z"/>
<path fill="#4F9799" opacity="1.000000" stroke="none" d=" M96.807343,112.515053   C96.180626,112.366035 95.669434,112.010712 95.139557,111.313751   C95.721527,111.417671 96.322197,111.863205 96.807343,112.515053  z"/>
<path fill="#40B5C4" opacity="1.000000" stroke="none" d=" M89.076874,62.238556   C93.833710,62.983734 98.587677,64.013077 103.715408,65.096855   C100.297401,67.000175 96.505608,68.849052 92.397537,70.860703   C91.188293,69.207520 90.295326,67.391571 89.201210,65.302376   C89.024696,64.193657 89.049339,63.358189 89.076874,62.238556  z"/>
<path fill="#40DDE0" opacity="1.000000" stroke="none" d=" M96.501503,49.114815   C98.218513,48.219707 100.209061,47.493217 102.569603,46.667168   C102.591896,49.100975 102.244186,51.634346 101.836227,54.606701   C99.914810,52.585789 98.344917,50.934612 96.501503,49.114815  z"/>
<path fill="#4F9799" opacity="1.000000" stroke="none" d=" M100.579582,83.059052   C101.145508,83.325569 101.580742,83.851372 102.027847,84.657890   C101.509430,84.398521 100.979164,83.858429 100.579582,83.059052  z"/>
</svg>